<?xml version="1.0" standalone="no"?>
<!DOCTYPE svg PUBLIC "-//W3C//DTD SVG 20010904//EN"
 "http://www.w3.org/TR/2001/REC-SVG-20010904/DTD/svg10.dtd">
<svg version="1.0" xmlns="http://www.w3.org/2000/svg"
 width="260.000000pt" height="260.000000pt" viewBox="0 0 260.000000 260.000000"
 preserveAspectRatio="xMidYMid meet">
<metadata>
Created by potrace 1.11, written by Peter Selinger 2001-2013
</metadata>
<g transform="translate(0.000000,260.000000) scale(0.100000,-0.100000)"
fill="#000000" stroke="none">
<path d="M1877 2489 c-31 -56 -42 -69 -55 -63 -73 32 -282 94 -345 103 -397
55 -792 -81 -1067 -365 -81 -84 -137 -155 -186 -239 -9 -17 -15 -16 -80 20
-74 40 -104 42 -104 5 0 -14 16 -28 58 -49 93 -49 89 -39 53 -124 -61 -149
-82 -247 -88 -419 -7 -192 5 -283 58 -443 88 -265 259 -493 480 -639 41 -27
76 -51 77 -52 2 -1 -13 -34 -34 -72 -39 -72 -41 -102 -4 -102 15 0 29 18 56
71 39 79 31 76 129 35 336 -140 705 -124 1039 47 182 93 355 246 460 407 27
41 51 77 54 80 2 3 37 -13 78 -35 66 -35 76 -37 90 -24 22 23 9 43 -44 68 -26
12 -57 30 -69 39 l-22 17 34 85 c114 284 122 560 25 852 -60 181 -160 345
-290 476 -74 75 -190 167 -247 196 -18 9 -33 21 -33 27 0 5 15 40 34 77 36 72
36 92 3 92 -17 0 -31 -17 -60 -71z m-468 21 c170 -18 408 -93 418 -131 5 -19
14 -23 46 -19 31 3 187 -110 281 -205 345 -345 450 -867 264 -1314 -20 -47
-38 -75 -49 -78 -13 -4 -19 -15 -19 -36 0 -72 -217 -325 -365 -424 -142 -95
-326 -169 -495 -199 -136 -23 -350 -15 -481 19 -142 37 -248 84 -260 114 -8
21 -14 24 -37 20 -66 -13 -307 197 -417 363 -95 142 -155 284 -192 452 -13 61
-18 124 -17 238 0 133 4 170 27 262 36 146 83 257 115 269 20 8 23 14 19 37
-13 67 198 313 368 427 157 105 366 182 557 204 103 12 131 12 237 1z"/>
<path d="M1171 2409 c-329 -40 -622 -218 -803 -489 -50 -74 -57 -79 -89 -65
-13 5 -23 -9 -47 -67 -81 -196 -109 -348 -99 -541 12 -237 97 -471 237 -653
84 -107 243 -244 348 -298 31 -16 35 -16 46 -1 10 15 18 13 80 -15 38 -16 114
-42 170 -57 91 -25 118 -27 276 -28 151 0 188 3 270 24 292 73 556 268 696
515 16 29 30 41 46 41 19 0 28 13 55 80 112 282 120 554 23 839 -79 235 -257
459 -465 587 -71 44 -80 47 -89 32 -5 -10 -10 -19 -11 -20 -1 -2 -24 8 -52 21
-161 78 -410 118 -592 95z m239 -49 c104 -13 210 -41 307 -82 59 -24 73 -34
68 -47 -4 -13 12 -29 63 -63 167 -111 282 -241 367 -413 129 -264 136 -597 18
-855 -30 -66 -32 -76 -18 -86 8 -6 15 -15 15 -19 0 -21 -116 -178 -177 -239
-299 -301 -748 -398 -1139 -247 -105 40 -120 52 -106 78 10 18 2 25 -76 76
-253 163 -416 435 -452 754 -17 154 16 358 81 502 25 55 28 69 18 87 -10 20
-5 32 42 100 144 208 364 361 612 425 138 36 248 44 377 29z m-1141 -772 c18
-6 22 -13 17 -31 -3 -12 -11 -60 -18 -107 l-12 -85 -54 3 -55 4 7 66 c6 59 18
120 31 160 5 13 32 10 84 -10z m5 -470 c3 -11 39 -139 53 -190 4 -13 -6 -23
-42 -38 -26 -11 -48 -20 -50 -20 -7 0 -63 183 -67 215 -3 27 0 31 32 36 57 10
70 10 74 -3z m200 -443 c9 -13 44 -54 78 -90 l61 -66 -33 -34 c-19 -19 -39
-35 -45 -35 -13 0 -85 74 -140 143 -37 46 -37 48 -19 62 10 7 28 20 39 29 28
22 40 20 59 -9z"/>
<path d="M1199 2270 c-350 -34 -664 -266 -800 -590 -205 -486 15 -1046 497
-1266 147 -67 208 -79 399 -79 189 1 229 8 380 71 520 218 743 832 487 1339
-71 142 -211 296 -343 378 -186 115 -407 168 -620 147z m268 -36 c308 -63 555
-255 688 -535 87 -183 111 -425 61 -620 -83 -330 -321 -582 -642 -683 -535
-166 -1092 168 -1209 726 -24 110 -20 288 9 399 108 428 483 725 919 728 54 1
132 -6 174 -15z"/>
<path d="M1251 2196 c2 -2 14 -8 25 -14 17 -9 25 -8 34 3 11 13 7 15 -25 15
-21 0 -36 -2 -34 -4z"/>
<path d="M1095 2183 c-173 -39 -334 -131 -460 -264 l-69 -74 79 -13 c68 -11
262 -57 331 -77 18 -6 31 8 89 97 37 57 97 143 132 191 36 48 64 89 62 91 -2
2 -27 15 -56 30 -51 25 -67 28 -108 19z"/>
<path d="M1457 2142 l-28 -29 83 -53 c99 -62 160 -111 249 -198 l66 -64 7 34
c4 18 9 65 13 104 l6 71 -44 30 c-110 74 -203 116 -280 128 -40 6 -47 4 -72
-23z"/>
<path d="M1895 1903 c-4 -32 -10 -80 -15 -106 -8 -48 -7 -49 44 -110 77 -92
132 -169 202 -283 34 -57 64 -101 66 -99 8 8 -11 165 -28 228 -34 135 -116
282 -209 380 -25 26 -47 47 -49 47 -3 0 -7 -26 -11 -57z"/>
<path d="M500 1749 c-7 -11 -10 -22 -8 -24 2 -1 41 -19 88 -39 47 -21 132 -62
189 -92 57 -30 105 -53 106 -52 2 3 54 101 63 119 4 9 -195 65 -298 84 -47 9
-95 18 -107 20 -15 4 -26 -1 -33 -16z"/>
<path d="M439 1623 c-38 -100 -64 -366 -41 -410 7 -13 30 -25 59 -32 26 -7 87
-28 136 -47 49 -19 92 -34 97 -34 4 0 27 55 50 123 24 67 56 151 72 186 15 35
27 66 25 67 -17 17 -363 174 -384 174 -2 0 -8 -12 -14 -27z"/>
<path d="M1037 1592 c-13 -21 -31 -51 -40 -68 l-16 -31 87 -66 c162 -122 311
-274 397 -405 l28 -43 38 59 c39 61 139 244 139 254 0 6 -157 109 -245 160
-84 50 -229 122 -302 151 l-62 25 -24 -36z"/>
<path d="M1680 1131 c-30 -64 -72 -146 -92 -183 -21 -37 -38 -74 -38 -81 0 -8
16 -48 34 -89 19 -41 47 -119 62 -174 16 -54 29 -100 30 -102 4 -7 91 42 149
83 81 57 204 188 249 264 20 34 36 64 36 67 0 12 -284 267 -350 314 l-25 18
-55 -117z"/>
<path d="M420 1067 c0 -15 44 -125 73 -182 32 -64 117 -189 123 -182 2 1 10
45 18 97 9 52 22 121 30 153 17 70 20 68 -121 96 -101 21 -123 24 -123 18z"/>
<path d="M707 868 c-15 -68 -30 -144 -33 -169 -6 -45 -6 -46 47 -91 112 -94
325 -192 358 -165 8 7 54 61 104 121 l89 110 -33 28 c-80 67 -234 162 -361
223 -74 36 -137 65 -140 65 -2 0 -16 -55 -31 -122z"/>
<path d="M1301 497 l-70 -92 57 -3 c62 -4 210 14 233 28 11 7 0 24 -51 75 -36
37 -73 71 -82 76 -14 7 -29 -8 -87 -84z"/>
</g>
</svg>
